<svg xmlns="http://www.w3.org/2000/svg" width="15.998" height="14.094" viewBox="0 0 15.998 14.094"><defs><style>.a{fill:#a6a9ac;}</style></defs><g transform="translate(-238.493 -1106)"><path class="a" d="M120.635,356.746c0,.3-.347.55-.776.55H109.776c-.428,0-.776-.246-.776-.55V349.6c0-.3.347-.549.776-.549h10.084c.428,0,.776.246.776.549Zm0,0" transform="translate(129.493 762.071)"/><path class="a" d="M136.726,248.786a1.939,1.939,0,1,1-1.939-1.939,1.939,1.939,0,0,1,1.939,1.939Zm0,0" transform="translate(106.615 860.123)"/><path class="a" d="M256.934,225.424A2.424,2.424,0,1,1,254.51,223a2.424,2.424,0,0,1,2.424,2.424Zm0,0" transform="translate(-7.775 883)"/><path class="a" d="M410.972,340.375a.547.547,0,0,1-.517.485,12.251,12.251,0,0,1-3.361-3.07v-3.555c0-.357,2.844-3.07,3.361-3.07a.486.486,0,0,1,.517.485Zm0,0" transform="translate(-156.481 779.234)"/></g></svg>