<svg xmlns="http://www.w3.org/2000/svg" width="24.202" height="24.211" viewBox="0 0 24.202 24.211">
    <defs>
        <style>.a{stroke:#f5f8f9;stroke-width:0.2px;}</style>
    </defs>
    <path class="a"
          fill="#60686e"
          d="M135.487,209.239a12,12,0,0,0-17.767,16.1,4.506,4.506,0,0,1-1.89,2.187,1.12,1.12,0,0,0,.322,2.111,5.712,5.712,0,0,0,.85.066,7.762,7.762,0,0,0,4.314-1.4,12.006,12.006,0,0,0,14.173-19.064Zm-.96,16.013a10.651,10.651,0,0,1-12.916,1.654.676.676,0,0,0-.759.045,6.464,6.464,0,0,1-3.766,1.383,6.836,6.836,0,0,0,2.056-2.84.683.683,0,0,0-.116-.724,10.645,10.645,0,1,1,15.5.483Zm0,0"
          transform="translate(-114.899 -205.62)"/>
</svg>
