<svg xmlns="http://www.w3.org/2000/svg" width="22.501" height="12" viewBox="0 0 22.501 12"><defs><style>.a{fill:#a6a9ac;}</style></defs><path class="a" d="M263.743,364.758A5.78,5.78,0,0,0,259.5,363H249a6,6,0,1,0,3.961,10.5h2.578a6,6,0,0,0,8.2-8.742ZM252.75,369.75a.362.362,0,0,1-.375.375h-2.25v2.25a.361.361,0,0,1-.375.374h-1.5a.361.361,0,0,1-.375-.374v-2.25h-2.249a.361.361,0,0,1-.375-.375v-1.5a.361.361,0,0,1,.375-.375h2.249v-2.25a.361.361,0,0,1,.375-.375h1.5a.361.361,0,0,1,.375.375v2.25h2.25a.362.362,0,0,1,.375.375Zm6.311,1.811a1.5,1.5,0,1,1,.44-1.06,1.446,1.446,0,0,1-.44,1.06Zm3-3a1.5,1.5,0,1,1,.44-1.061,1.445,1.445,0,0,1-.44,1.061Zm0,0" transform="translate(-243 -363)"/></svg>