<svg xmlns="http://www.w3.org/2000/svg" width="26.202" height="23.312" viewBox="0 0 26.202 23.312"><defs><style>.a{fill:#e85c77;}</style></defs><path class="a" d="M114.1,237.311a1.537,1.537,0,0,1-1.013-.381c-1.058-.926-2.079-1.8-2.979-2.562l0,0a55.414,55.414,0,0,1-6.505-6.106,9.752,9.752,0,0,1-2.6-6.384,8.189,8.189,0,0,1,2.079-5.593A7.046,7.046,0,0,1,108.32,214a6.59,6.59,0,0,1,4.117,1.421,8.426,8.426,0,0,1,1.664,1.738,8.418,8.418,0,0,1,1.664-1.738A6.591,6.591,0,0,1,119.883,214a7.046,7.046,0,0,1,5.241,2.281,8.189,8.189,0,0,1,2.079,5.593,9.751,9.751,0,0,1-2.6,6.384,55.4,55.4,0,0,1-6.5,6.106c-.9.768-1.924,1.64-2.985,2.567a1.538,1.538,0,0,1-1.013.38Z" transform="translate(-101 -214)"/></svg>