<svg xmlns="http://www.w3.org/2000/svg" width="26.3" height="23.432" viewBox="0 0 26.3 23.432">
    <defs>
        <style>.a{fill:#60686e;stroke:#fff;stroke-width:0.3px;}</style>
    </defs>
    <path class="a"
          d="M114,237.132a1.525,1.525,0,0,1-1.005-.378c-1.05-.918-2.063-1.782-2.956-2.543l0,0a54.984,54.984,0,0,1-6.455-6.059A9.677,9.677,0,0,1,101,221.814a8.126,8.126,0,0,1,2.062-5.55,6.992,6.992,0,0,1,5.2-2.264,6.539,6.539,0,0,1,4.085,1.41A8.362,8.362,0,0,1,114,217.135a8.354,8.354,0,0,1,1.652-1.724,6.54,6.54,0,0,1,4.085-1.41,6.992,6.992,0,0,1,5.2,2.264,8.126,8.126,0,0,1,2.063,5.55,9.676,9.676,0,0,1-2.579,6.335,54.964,54.964,0,0,1-6.455,6.058c-.895.762-1.909,1.627-2.962,2.548a1.526,1.526,0,0,1-1,.377Zm-5.737-21.608a5.485,5.485,0,0,0-4.081,1.773,6.609,6.609,0,0,0-1.659,4.518,8.142,8.142,0,0,0,2.228,5.363,54.082,54.082,0,0,0,6.27,5.872l0,0c.9.764,1.913,1.631,2.972,2.556,1.064-.927,2.083-1.795,2.981-2.56a54.128,54.128,0,0,0,6.27-5.871,8.143,8.143,0,0,0,2.228-5.363,6.611,6.611,0,0,0-1.659-4.518,5.485,5.485,0,0,0-4.081-1.773,5.051,5.051,0,0,0-3.154,1.092,7.392,7.392,0,0,0-1.757,2.034.961.961,0,0,1-1.652,0,7.383,7.383,0,0,0-1.757-2.034,5.05,5.05,0,0,0-3.153-1.092Zm0,0"
          transform="translate(-100.85 -213.85)"/>
</svg>
