<svg xmlns="http://www.w3.org/2000/svg" width="9.624" height="13.894" viewBox="0 0 9.624 13.894"><defs><style>.a{fill:#a6a9ac;}</style></defs><path class="a" d="M104.845,72.873a5.771,5.771,0,0,0,.774-2.541,3.547,3.547,0,0,0-.374-1.763,4.982,4.982,0,0,0-1.923-1.894,5.436,5.436,0,0,1-1.422-1.2l-.065-.088a2.366,2.366,0,0,1-.5-.89.54.54,0,0,0-.566-.46.533.533,0,0,0-.5.532v9.523a3.092,3.092,0,0,0-1.6-.438,2.191,2.191,0,1,0,2.672,2.138V69.564a3.847,3.847,0,0,1,2.478,2.913,3.01,3.01,0,0,1-.206.292.534.534,0,1,0,.8.705,3.973,3.973,0,0,0,.392-.552A.339.339,0,0,0,104.845,72.873Z" transform="translate(-96 -64.037)"/></svg>