<svg xmlns="http://www.w3.org/2000/svg" width="15.489" height="15.454" viewBox="0 0 15.489 15.454"><defs><style>.a{fill:#60686e;}</style></defs><g transform="translate(0)"><path class="a" d="M298.143,386.224l-2.392-2.393a1.247,1.247,0,0,0-1.758.034l-1.205,1.2-.238-.132a11.281,11.281,0,0,1-5-5c-.046-.08-.088-.157-.13-.232l.808-.807.4-.4a1.246,1.246,0,0,0,.032-1.758l-2.393-2.393a1.245,1.245,0,0,0-1.758.033l-.673.678.017.018a3.911,3.911,0,0,0-.554.98,4.028,4.028,0,0,0-.247.994c-.317,2.619.88,5.012,4.127,8.26,4.489,4.488,8.107,4.15,8.264,4.132a4.038,4.038,0,0,0,1-.25,3.862,3.862,0,0,0,.975-.553l.015.013.684-.669a1.249,1.249,0,0,0,.031-1.76Zm0,0" transform="translate(-283.002 -374)"/></g></svg>