<svg xmlns="http://www.w3.org/2000/svg" width="21.996" height="22.043" viewBox="0 0 21.996 22.043"><defs><style>.a,.b{fill:#60686e;stroke:#fff;}.a{stroke-width:0.4px;}.b{stroke-width:0.6px;}</style></defs><g transform="translate(0.2 0.247)"><g transform="translate(0 0)"><path class="a" d="M72.592,153.546v4.719a3.378,3.378,0,0,1-3.374,3.374H54.37A3.379,3.379,0,0,1,51,158.265V143.418a3.379,3.379,0,0,1,3.374-3.375h5.855a.844.844,0,1,1,0,1.687H54.37a1.689,1.689,0,0,0-1.687,1.687v14.848a1.689,1.689,0,0,0,1.687,1.687H69.218a1.689,1.689,0,0,0,1.687-1.687v-4.719a.844.844,0,1,1,1.687,0ZM68.838,145.4" transform="translate(-50.996 -140.043)"/></g><path class="b" d="M219.041,155.291a.824.824,0,0,1-.812-.683l-.11-.632c0-.011,0-.022-.005-.033a8.26,8.26,0,0,1,2.909-7.455,7.1,7.1,0,0,1,4.306-1.526v-2.468a.824.824,0,0,1,1.405-.584l5.465,5.438a.824.824,0,0,1,0,1.165L226.738,154a.824.824,0,0,1-1.408-.581v-2.561c-1.229,0-3.453.486-5.253,3.48l-.329.549A.823.823,0,0,1,219.041,155.291Zm7.03-8.706a6.046,6.046,0,0,0-3.933,1.116.516.516,0,0,1-.045.04,6.518,6.518,0,0,0-2.335,4.224,7.088,7.088,0,0,1,6.527-2.679.824.824,0,0,1,.693.813v1.327l3.476-3.493-3.476-3.458v1.286a.824.824,0,0,1-.824.824Z" transform="translate(-210.982 -141.6)"/></g></svg>