<svg xmlns="http://www.w3.org/2000/svg" width="16.871" height="16.876" viewBox="0 0 16.871 16.876"><defs><style>.a{fill:rgba(109,204,239,0.99);}.b{fill:#fff;}</style></defs><path class="a" d="M205.387,290.23a7.89,7.89,0,0,0,.185-1.7,7.992,7.992,0,0,0-8.047-7.936,8.226,8.226,0,0,0-1.376.116,4.688,4.688,0,0,0-2.482-.706A4.635,4.635,0,0,0,189,284.6a4.542,4.542,0,0,0,.641,2.328,7.816,7.816,0,0,0,7.884,9.4A8.225,8.225,0,0,0,199,296.2a4.819,4.819,0,0,0,2.206.677,4.634,4.634,0,0,0,4.667-4.6,4.535,4.535,0,0,0-.484-2.044Zm0,0" transform="translate(-189 -280)"/><path class="b" d="M261.957,339.142a3.043,3.043,0,0,1-1.363,1.038,5.464,5.464,0,0,1-2.127.376,5.126,5.126,0,0,1-2.434-.513,3.151,3.151,0,0,1-1.1-.985,2.118,2.118,0,0,1-.424-1.2.766.766,0,0,1,.255-.578.9.9,0,0,1,.649-.242.8.8,0,0,1,.54.188,1.449,1.449,0,0,1,.377.556,3.564,3.564,0,0,0,.412.732,1.638,1.638,0,0,0,.621.485,2.492,2.492,0,0,0,1.054.19,2.529,2.529,0,0,0,1.458-.384,1.136,1.136,0,0,0,.561-.96.969.969,0,0,0-.3-.74,1.986,1.986,0,0,0-.782-.434q-.479-.151-1.282-.32a9.981,9.981,0,0,1-1.8-.54,2.886,2.886,0,0,1-1.149-.844,2.069,2.069,0,0,1-.425-1.329,2.154,2.154,0,0,1,.449-1.345,2.811,2.811,0,0,1,1.3-.9,5.72,5.72,0,0,1,2-.316,5.382,5.382,0,0,1,1.588.209,3.452,3.452,0,0,1,1.11.557,2.365,2.365,0,0,1,.646.729,1.571,1.571,0,0,1,.2.744.889.889,0,0,1-.89.864.776.776,0,0,1-.527-.16,2.14,2.14,0,0,1-.39-.523,2.391,2.391,0,0,0-.653-.809,2.031,2.031,0,0,0-1.224-.291,2.25,2.25,0,0,0-1.261.316.906.906,0,0,0-.48.76.735.735,0,0,0,.163.475,1.323,1.323,0,0,0,.449.343,3.257,3.257,0,0,0,.577.226c.195.054.517.133.966.237q.842.181,1.525.4a4.869,4.869,0,0,1,1.163.531,2.257,2.257,0,0,1,.748.793,2.365,2.365,0,0,1,.269,1.172,2.54,2.54,0,0,1-.466,1.494Zm0,0" transform="translate(-249.762 -327.376)"/></svg>