<svg xmlns="http://www.w3.org/2000/svg" width="17.183" height="16.406" viewBox="0 0 17.183 16.406"><defs><style>.a{fill:#60686e;}</style></defs><path class="a" d="M295,379.371a.665.665,0,0,1,1.193,0l2.138,4.335a.671.671,0,0,0,.5.364l4.786.7a.665.665,0,0,1,.367,1.135l-3.46,3.374a.664.664,0,0,0-.192.588l.816,4.766a.665.665,0,0,1-.965.7l-4.279-2.25a.657.657,0,0,0-.619,0L291,395.328a.663.663,0,0,1-.7-.049.671.671,0,0,1-.264-.652l.816-4.766a.663.663,0,0,0-.19-.588L287.2,385.9a.665.665,0,0,1,.369-1.135l4.784-.7a.668.668,0,0,0,.5-.364Zm0,0" transform="translate(-287 -379)"/></svg>